<svg id="Layer_1" height="512" viewBox="0 0 512 512" width="512" xmlns="http://www.w3.org/2000/svg" data-name="Layer 1"><path d="m481.89 449.05v.35h-51.15v-.35-186.21h51.15z" fill="#5fcda4"/><path d="m456.67 178.23a26.293 26.293 0 1 1 -20.71 10.11 26.268 26.268 0 0 1 20.71-10.11z" fill="#e87187"/><path d="m371.24 151.95a26.28 26.28 0 1 1 -26.28-26.28 26.36 26.36 0 0 1 26.28 26.28z" fill="#e87187"/><path d="m370.19 449.05v.35h-51.16v-.35-238.77h51.16z" fill="#5fa8ed"/><path d="m258.48 449.05v.35h-51.15v-.35-133.66h51.15z" fill="#5fcda4"/><path d="m249.33 236.28a26.266 26.266 0 1 1 -16.08-5.5 26.192 26.192 0 0 1 16.08 5.5z" fill="#e87187"/><path d="m236.76 178.13-12.06 31.24-18.63-.55a92.222 92.222 0 0 1 -21.92 23.01l1.37 18.63-30.68 13.43-12.88-13.43a102.976 102.976 0 0 1 -31.78.83l-12.05 13.97-31.24-12.06.55-18.63a92.182 92.182 0 0 1 -23.01-21.91l-18.63 1.37-13.43-30.69 13.42-12.88a103.276 103.276 0 0 1 -.82-31.78l-13.97-12.05 12.05-31.24 18.64.55a92.182 92.182 0 0 1 21.91-23.01l-1.37-18.63 30.69-13.43 12.87 13.43a102.738 102.738 0 0 1 31.79-.82l12.05-13.98 31.24 12.06-.55 18.63a92.043 92.043 0 0 1 23.01 21.92l18.63-1.37 13.43 30.68-13.43 12.88a102.976 102.976 0 0 1 .83 31.78zm-31.33-25.75a81.55 81.55 0 1 0 -81.55 81.55 81.548 81.548 0 0 0 81.55-81.55z" fill="#6d6d93"/><circle cx="123.88" cy="152.38" fill="#f3ce7d" r="65.43"/><path d="m146.77 449.05v.35h-51.15v-.35-56.67h51.15z" fill="#5fa8ed"/><path d="m143.01 318.9a26.271 26.271 0 1 1 -21.46-11.13 26.136 26.136 0 0 1 21.46 11.13z" fill="#e87187"/><path d="m78 448h423v25h-423z" fill="#7d8595"/><path d="m138.88 88.7a65.43 65.43 0 1 0 0 127.366 65.424 65.424 0 0 1 0-127.366z" fill="#ceae6f"/><g fill="#284268"><path d="m130 189.487v-3.487a20.843 20.843 0 0 0 14.365-19.523 20.475 20.475 0 0 0 -20.457-20.426 8.427 8.427 0 1 1 8.4-8.427 6.031 6.031 0 0 0 12.061 0 20.842 20.842 0 0 0 -14.369-19.524v-2.83a6 6 0 0 0 -12 0v2.83a20.953 20.953 0 0 0 -14.487 19.523 20.423 20.423 0 0 0 20.395 20.427 8.423 8.423 0 0 1 .074 16.846c-.033 0-.067 0-.1 0s-.066 0-.1 0a8.433 8.433 0 0 1 -8.33-8.42 5.97 5.97 0 1 0 -11.94 0c0 9.175 6.487 16.953 14.487 19.523v3.485a6 6 0 0 0 12 0z"/><path d="m195.311 152.381a71.433 71.433 0 1 0 -71.433 71.432 71.514 71.514 0 0 0 71.433-71.432zm-130.866 0a59.433 59.433 0 1 1 59.433 59.432 59.5 59.5 0 0 1 -59.433-59.432z"/><path d="m211.427 152.381a87.549 87.549 0 1 0 -87.549 87.549 87.648 87.648 0 0 0 87.549-87.549zm-163.1 0a75.549 75.549 0 1 1 75.549 75.549 75.635 75.635 0 0 1 -75.547-75.549z"/><path d="m98.125 271.259a6 6 0 0 0 4.544-2.08l9.982-11.571a108.62 108.62 0 0 0 27.175-.7l10.681 11.137a6 6 0 0 0 6.735 1.344l30.685-13.424a6 6 0 0 0 3.579-5.937l-1.132-15.4a97.912 97.912 0 0 0 18.777-19.714l15.374.452a6.014 6.014 0 0 0 5.774-3.837l12.055-31.229a6 6 0 0 0 -1.677-6.7l-11.568-9.985a108.769 108.769 0 0 0 -.7-27.176l11.136-10.681a6 6 0 0 0 1.345-6.735l-13.428-30.692a5.979 5.979 0 0 0 -5.937-3.578l-15.4 1.131a97.978 97.978 0 0 0 -19.711-18.777l.452-15.374a6 6 0 0 0 -3.838-5.774l-31.233-12.059a6 6 0 0 0 -6.7 1.679l-9.982 11.57a108.8 108.8 0 0 0 -27.18.7l-10.683-11.13a6 6 0 0 0 -6.736-1.344l-30.685 13.425a6 6 0 0 0 -3.579 5.936l1.132 15.4a97.913 97.913 0 0 0 -18.782 19.713l-15.369-.449a5.993 5.993 0 0 0 -5.774 3.837l-12.057 31.23a6 6 0 0 0 1.678 6.7l11.57 9.983a108.672 108.672 0 0 0 .7 27.176l-11.131 10.684a6 6 0 0 0 -1.344 6.735l13.427 30.686a5.973 5.973 0 0 0 5.937 3.578l15.4-1.132a97.907 97.907 0 0 0 19.713 18.777l-.45 15.373a6 6 0 0 0 3.837 5.775l31.233 12.054a5.984 5.984 0 0 0 2.155.403zm-27.356-41.678a86.057 86.057 0 0 1 -21.518-20.493 5.981 5.981 0 0 0 -5.264-2.416l-14.4 1.058-10.042-22.959 10.4-9.976a6 6 0 0 0 1.749-5.41 96.767 96.767 0 0 1 -.773-29.928 6 6 0 0 0 -2.03-5.316l-10.774-9.3 9-23.329 14.386.422a5.983 5.983 0 0 0 5.168-2.668 86.041 86.041 0 0 1 20.499-21.514 6 6 0 0 0 2.417-5.264l-1.058-14.4 22.958-10.04 9.976 10.4a6 6 0 0 0 5.41 1.749 96.712 96.712 0 0 1 29.933-.773 6.006 6.006 0 0 0 5.317-2.031l9.294-10.774 23.329 9-.423 14.386a6 6 0 0 0 2.669 5.169 86.074 86.074 0 0 1 21.518 20.499 5.965 5.965 0 0 0 5.264 2.416l14.4-1.058 10.044 22.958-10.4 9.977a6 6 0 0 0 -1.749 5.41 96.771 96.771 0 0 1 .773 29.928 6 6 0 0 0 2.03 5.315l10.771 9.3-9 23.329-14.386-.423a5.958 5.958 0 0 0 -5.168 2.669 86.084 86.084 0 0 1 -20.494 21.519 6 6 0 0 0 -2.416 5.263l1.058 14.4-22.958 10.043-9.977-10.4a6 6 0 0 0 -5.409-1.75 96.772 96.772 0 0 1 -29.928.774 6 6 0 0 0 -5.317 2.03l-9.304 10.767-23.329-9 .423-14.386a6 6 0 0 0 -2.669-5.173z"/><path d="m501 443h-13v-180.161a5.957 5.957 0 0 0 -6.106-5.839h-51.153a5.648 5.648 0 0 0 -5.741 5.839v180.161h-49v-232.716a6.094 6.094 0 0 0 -5.813-6.284h-51.153a6.278 6.278 0 0 0 -6.034 6.284v232.716h-49v-127.607c0-3.314-2.207-6.393-5.521-6.393h-51.152a6.633 6.633 0 0 0 -6.327 6.393v127.607h-48v-50.618a6.535 6.535 0 0 0 -6.228-6.382h-51.152c-3.314 0-5.62 3.068-5.62 6.382v50.618h-11.6a6.7 6.7 0 0 0 -6.4 6.4v23.1c0 3.314 3.084 5.5 6.4 5.5h422.6c3.313 0 6-2.188 6-5.5v-23.1c0-3.315-2.687-6.4-6-6.4zm-64-174h39v174h-39zm-112-53h39v227h-39zm-112 105h39v122h-39zm-111 77h39v45h-39zm393 68h-411v-11h411z"/><path d="m456.667 236.78a32.277 32.277 0 1 0 -22.208-55.665l-57.459-25.346a32.274 32.274 0 1 0 -61 10.416l-67.334 62.521a32.26 32.26 0 0 0 -44.856 41.554l-59.768 40.673a32.253 32.253 0 1 0 6.9 9.817l59.739-40.65a32.256 32.256 0 0 0 47.344-43.707l65.234-60.571a32.247 32.247 0 0 0 50.1-8.544l53.965 23.805a32.257 32.257 0 0 0 29.342 45.7zm0-52.553a20.277 20.277 0 1 1 -20.276 20.273 20.3 20.3 0 0 1 20.276-20.273zm-335.121 170.1a20.277 20.277 0 1 1 16.1-32.554l1.254 1.827a20.234 20.234 0 0 1 -17.349 30.72zm111.707-76.989a20.278 20.278 0 1 1 20.278-20.277 20.3 20.3 0 0 1 -20.278 20.274zm111.707-105.111a20.277 20.277 0 1 1 20.278-20.278 20.3 20.3 0 0 1 -20.278 20.278z"/><path d="m304 236.169a6 6 0 1 0 -12 0v2.984a6 6 0 1 0 12 0z"/><path d="m298 252.463a6 6 0 0 0 -6 6v86.669a6 6 0 1 0 12 0v-86.669a6 6 0 0 0 -6-6z"/></g></svg>